<?xml version="1.0" encoding="UTF-8"?>
<svg version="1.1" xmlns="http://www.w3.org/2000/svg" width="213" height="213">
<path d="M0 0 C70.29 0 140.58 0 213 0 C213 70.29 213 140.58 213 213 C142.71 213 72.42 213 0 213 C0 142.71 0 72.42 0 0 Z " fill="#101011" transform="translate(0,0)"/>
<path d="M0 0 C9.24551142 7.19705537 9.24551142 7.19705537 10.75390625 12.80078125 C10.83511719 13.52652344 10.91632813 14.25226563 11 15 C9.88625 15.53625 8.7725 16.0725 7.625 16.625 C3.3082135 18.75266879 -0.68492557 21.28323927 -4.703125 23.92578125 C-7 25 -7 25 -9.18359375 24.8125 C-11 24 -11 24 -12.8125 21.6875 C-16.07719534 17.67658859 -19.3625616 15.29671182 -24.5 14.71875 C-28.75979222 14.66803819 -32.86473688 14.89726317 -37 16 C-37.495 17.485 -37.495 17.485 -38 19 C-38.99 19.66 -39.98 20.32 -41 21 C-41.39318693 25.06293163 -41.63789612 27.72420777 -39.8125 31.375 C-37.6069497 33.35238993 -35.8088055 34.02302417 -33 35 C-31.72595551 35.5762862 -30.45555685 36.16065548 -29.1875 36.75 C-24.11422517 39.03425697 -18.90871288 40.93250564 -13.67260742 42.80566406 C-9.85647433 44.19707415 -6.31557549 45.62897799 -3 48 C-3 48.66 -3 49.32 -3 50 C-2.46375 50.061875 -1.9275 50.12375 -1.375 50.1875 C2.95950394 51.67035661 5.99432877 54.70699413 8.75 58.25 C12.35901818 66.18983999 13.37396446 75.11702539 10.8125 83.5 C6.46135723 95.09630142 0.75764431 101.39516979 -10.27734375 106.921875 C-16.60725563 109.42841113 -22.50186353 110.3671092 -29.25 110.3125 C-29.98943848 110.30686035 -30.72887695 110.3012207 -31.49072266 110.29541016 C-44.38087016 110.01306253 -56.10031818 106.08483154 -65.4375 96.9375 C-66.64254447 95.64108945 -67.83231995 94.33016383 -69 93 C-69.804375 92.0925 -70.60875 91.185 -71.4375 90.25 C-72.96735244 88.04701249 -73.44338952 86.57229698 -74 84 C-69.25288486 80.62448985 -64.4945113 77.2598395 -59.625 74.0625 C-59.01914063 73.66160156 -58.41328125 73.26070313 -57.7890625 72.84765625 C-56 72 -56 72 -52 72 C-50.47265625 73.828125 -50.47265625 73.828125 -49.0625 76.25 C-45.62661184 81.74914763 -42.21704362 84.94506681 -36 87 C-32.55403367 87.35243364 -32.55403367 87.35243364 -28.9375 87.3125 C-27.72964844 87.32925781 -26.52179688 87.34601563 -25.27734375 87.36328125 C-21.77911013 86.97551519 -20.58520264 86.26279861 -18 84 C-17.34 84 -16.68 84 -16 84 C-15.505 82.515 -15.505 82.515 -15 81 C-14.34 81 -13.68 81 -13 81 C-13.05991406 79.04081032 -13.14867138 77.08248471 -13.25 75.125 C-13.29640625 74.03445312 -13.3428125 72.94390625 -13.390625 71.8203125 C-13.68133016 68.92016204 -13.68133016 68.92016204 -15.78515625 67.76171875 C-16.51605469 67.51035156 -17.24695313 67.25898437 -18 67 C-18.98033203 66.44892578 -18.98033203 66.44892578 -19.98046875 65.88671875 C-25.36048398 62.96341844 -30.69191391 61.11931771 -36.5625 59.5 C-45.4690102 57.01782599 -52.75692356 54.13494451 -59 47 C-59.70125 46.21625 -60.4025 45.4325 -61.125 44.625 C-67.04608987 36.33547418 -67.88367385 28.00141592 -66.64453125 18.18359375 C-64.70433616 9.02951891 -59.10180018 3.33271265 -52 -2.4375 C-35.16977956 -11.20323981 -15.50498099 -10.96123831 0 0 Z " fill="#F9F9F9" transform="translate(137,56)"/>
<path d="M0 0 C2.50490298 2.24852868 4.12411721 4.18617582 6 7 C2.41470556 6.40379373 0.53721336 4.97748476 -2.1875 2.625 C-11.2853049 -4.58235193 -21.81045218 -5.54729663 -33.21484375 -4.78515625 C-39.47979872 -3.93854071 -44.52836783 -2.10871316 -50.0390625 0.9765625 C-52 2 -52 2 -54 2 C-54.268125 2.639375 -54.53625 3.27875 -54.8125 3.9375 C-56 6 -56 6 -59 7 C-60.11935073 8.64630193 -60.11935073 8.64630193 -61 11 C-61.804375 12.670625 -61.804375 12.670625 -62.625 14.375 C-65.55771124 22.26962166 -64.55355966 31.8438118 -63 40 C-65 39 -65 39 -66.125 36.125 C-68.30330432 27.58604706 -67.67452666 18.01925002 -64 10 C-57.03595909 0.30496265 -48.88567393 -5.23796834 -37.2421875 -7.546875 C-23.15083055 -9.51626947 -11.79962321 -8.42251507 0 0 Z " fill="#BBBBBB" transform="translate(137,56)"/>
<path d="M0 0 C0.495 1.485 0.495 1.485 1 3 C-4.20424125 12.86363413 -13.8210951 17.66553115 -24 21 C-28.1183179 22.17535839 -32.12047135 22.14693056 -36.375 22.125 C-37.48875 22.13080078 -37.48875 22.13080078 -38.625 22.13671875 C-42.8598522 22.12923668 -46.82909897 21.83418021 -51 21 C-48.0251583 18.0251583 -44.68380522 18.61968155 -40.6875 18.5 C-22.59298557 17.71804751 -22.59298557 17.71804751 -7 9 C-5.61724786 7.37409961 -4.27619124 5.71081602 -3 4 C-2.13375 2.8553125 -2.13375 2.8553125 -1.25 1.6875 C-0.63125 0.8521875 -0.63125 0.8521875 0 0 Z " fill="#BEBEBE" transform="translate(144,144)"/>
<path d="M0 0 C-0.8125 1.9375 -0.8125 1.9375 -2 4 C-2.99 4.33 -3.98 4.66 -5 5 C-6.11935073 6.64630193 -6.11935073 6.64630193 -7 9 C-7.804375 10.670625 -7.804375 10.670625 -8.625 12.375 C-11.55771124 20.26962166 -10.55355966 29.8438118 -9 38 C-11 37 -11 37 -12.125 34.125 C-14.32504072 25.50084038 -13.52361219 16.15218988 -10 8 C-4.64556962 0 -4.64556962 0 0 0 Z " fill="#C4C4C4" transform="translate(83,58)"/>
<path d="M0 0 C3.35006941 1.46376907 5.61314868 3.36145468 8.25 5.875 C13.94626446 11.03811655 19.65795368 13.7973861 27 16 C26.67 16.66 26.34 17.32 26 18 C15.83243584 16.70296469 7.34140148 10.95218528 1 3 C0.67 2.01 0.34 1.02 0 0 Z " fill="#C3C3C3" transform="translate(67,146)"/>
<path d="M0 0 C0 0.33 0 0.66 0 1 C-1.39412109 1.25523438 -1.39412109 1.25523438 -2.81640625 1.515625 C-10.8147572 2.92471142 -10.8147572 2.92471142 -18.125 6.25 C-21 8 -21 8 -23.1796875 7.609375 C-23.78039062 7.40828125 -24.38109375 7.2071875 -25 7 C-16.85400533 0.58719568 -10.32332939 -1.80248608 0 0 Z " fill="#BABABA" transform="translate(106,50)"/>
<path d="M0 0 C1.5345267 0.08791559 3.06842553 0.18736522 4.6015625 0.296875 C5.75398438 0.35681641 5.75398438 0.35681641 6.9296875 0.41796875 C10.77707282 0.66425466 13.90962577 0.88288419 17.2265625 3.046875 C14.5181608 3.07401934 11.81003529 3.09378346 9.1015625 3.109375 C7.96074219 3.12194336 7.96074219 3.12194336 6.796875 3.13476562 C2.4875981 3.15334009 -1.52860224 2.90804765 -5.7734375 2.046875 C-3.7734375 0.046875 -3.7734375 0.046875 0 0 Z " fill="#848485" transform="translate(98.7734375,162.953125)"/>
<path d="M0 0 C-0.66 0 -1.32 0 -2 0 C-2.33 0.99 -2.66 1.98 -3 3 C-8.61 2.67 -14.22 2.34 -20 2 C-20 1.67 -20 1.34 -20 1 C-17.41765641 0.63667026 -14.83460218 0.28405133 -12.25 -0.0625 C-11.52039063 -0.16626953 -10.79078125 -0.27003906 -10.0390625 -0.37695312 C-6.3892704 -0.85806208 -3.52327086 -1.04532842 0 0 Z " fill="#C0C0C0" transform="translate(123,162)"/>
<path d="M0 0 C5.2584002 0.67415387 10.02638346 2.24265549 15 4 C14.67 4.66 14.34 5.32 14 6 C8.65155992 5.46515599 4.64203897 3.53309233 0 1 C0 0.67 0 0.34 0 0 Z " fill="#9D9D9E" transform="translate(79,158)"/>
<path d="M0 0 C-1 3 -1 3 -4 5 C-4.36792655 9.56228926 -4.61838609 13.07242087 -2 17 C-3.32 16.67 -4.64 16.34 -6 16 C-6.10841951 14.08458862 -6.18578079 12.16740227 -6.25 10.25 C-6.29640625 9.18265625 -6.3428125 8.1153125 -6.390625 7.015625 C-6 4 -6 4 -4.109375 1.609375 C-2 0 -2 0 0 0 Z " fill="#909091" transform="translate(100,72)"/>
<path d="M0 0 C-1.60032137 0.84069415 -3.20541171 1.67231505 -4.8125 2.5 C-6.15248047 3.19609375 -6.15248047 3.19609375 -7.51953125 3.90625 C-10 5 -10 5 -13 5 C-13 4.34 -13 3.68 -13 3 C-11.5903653 2.29819469 -10.17192359 1.61406042 -8.75 0.9375 C-7.96109375 0.55464844 -7.1721875 0.17179688 -6.359375 -0.22265625 C-3.74006478 -1.08564091 -2.55144824 -0.93045933 0 0 Z " fill="#AFAFB0" transform="translate(134,159)"/>
<path d="M0 0 C2.70931419 0.15481795 4.46584039 0.48172081 6.4453125 2.40234375 C7.67679642 3.89771708 8.8429837 5.4462924 10 7 C5.61308455 6.49381745 3.15608721 3.86917019 0 1 C0 0.67 0 0.34 0 0 Z " fill="#C8C8C9" transform="translate(133,56)"/>
<path d="M0 0 C0 0.66 0 1.32 0 2 C-4.15267176 5.11450382 -4.15267176 5.11450382 -7.3125 4.6875 C-7.869375 4.460625 -8.42625 4.23375 -9 4 C-4.5 0 -4.5 0 0 0 Z " fill="#B0B0B0" transform="translate(90,53)"/>
<path d="M0 0 C2.5 2.3125 2.5 2.3125 5 5 C5 5.99 5 6.98 5 8 C4.34 8 3.68 8 3 8 C0 2.25 0 2.25 0 0 Z " fill="#A9A9A9" transform="translate(143,63)"/>
</svg>
